<svg xmlns="http://www.w3.org/2000/svg" width="500" height="400" viewBox="0 0 500 400">
  <defs>
    <linearGradient id="bg" x1="0" y1="0" x2="1" y2="1">
      <stop offset="0%" stop-color="#0170B9"/>
      <stop offset="100%" stop-color="#01257D"/>
    </linearGradient>
  </defs>
  <rect width="500" height="400" fill="url(#bg)" rx="20"/>
  <g fill="#fff" opacity="0.9">
    <path d="M250 120c-30 0-55 20-62 47-15 2-27 15-27 30 0 17 14 31 31 31h120c22 0 40-18 40-40 0-20-15-37-35-39-5-17-21-29-39-29-8-2-18 0-28 0z"/>
    <rect x="200" y="250" width="100" height="80" rx="8" fill="#FF7800" opacity="0.8"/>
    <circle cx="250" cy="275" r="12" fill="#fff"/>
    <rect x="245" y="287" width="10" height="20" rx="3" fill="#fff"/>
  </g>
  <text x="250" y="370" text-anchor="middle" fill="#fff" font-family="Arial,sans-serif" font-size="18" opacity="0.7">Cloud Hosting</text>
</svg>
